<svg width="17" height="29" viewBox="0 0 17 29" fill="none" xmlns="http://www.w3.org/2000/svg">
<path d="M8.5 4.38688C10.23 4.38688 11.6369 5.77709 11.6369 7.48653C11.6369 9.19082 10.23 10.581 8.5 10.581C6.77003 10.581 5.36312 9.19082 5.36312 7.48653C5.36312 5.77709 6.77003 4.38688 8.5 4.38688ZM8.5 14.9679C12.679 14.9679 16.0764 11.6108 16.0764 7.48653C16.0764 3.3571 12.679 0 8.5 0C4.32097 0 0.928768 3.3571 0.928768 7.48653C0.928768 11.6108 4.32097 14.9679 8.5 14.9679ZM11.5639 21.0745C13.1063 20.7244 14.5914 20.122 15.9618 19.2724C16.9987 18.6288 17.3114 17.2746 16.66 16.25C16.0035 15.2202 14.6383 14.9113 13.5961 15.56C10.4957 17.4857 6.50428 17.4857 3.39867 15.56C2.36173 14.9113 0.991298 15.2202 0.339953 16.25C-0.311393 17.2746 0.00125236 18.6288 1.03819 19.2724C2.40862 20.122 3.89369 20.7244 5.43607 21.0745L1.19973 25.2554C0.334741 26.1102 0.334741 27.5004 1.19973 28.3551C1.63743 28.7825 2.20019 28.9987 2.76817 28.9987C3.33614 28.9987 3.90411 28.7825 4.34182 28.3551L8.5 24.2463L12.6634 28.3551C13.5284 29.215 14.9301 29.215 15.8003 28.3551C16.6653 27.5004 16.6653 26.1102 15.8003 25.2554L11.5639 21.0745Z" fill="#F5F5F5"/>
</svg>
