<svg width="30" height="30" viewBox="0 0 30 30" fill="none" xmlns="http://www.w3.org/2000/svg">
<path d="M20.105 17.0854C19.7067 16.6547 19.2593 16.272 18.7721 15.9452C20.7381 14.4252 22.1159 12.2702 22.6705 9.84774C22.7114 9.67268 22.7173 9.49126 22.6879 9.3139C22.6584 9.13655 22.5942 8.96677 22.4989 8.81433C22.4036 8.66189 22.279 8.52981 22.1325 8.42567C21.9859 8.32154 21.8202 8.24741 21.6449 8.20755C21.4696 8.1677 21.2882 8.1629 21.111 8.19344C20.9338 8.22398 20.7644 8.28926 20.6126 8.3855C20.4607 8.48175 20.3294 8.60708 20.2262 8.75427C20.123 8.90146 20.0499 9.06761 20.0111 9.24316C19.7528 10.3763 19.2505 11.4395 18.5391 12.3585C17.8277 13.2776 16.9244 14.0304 15.8922 14.5645V9.54818C15.8838 9.44784 15.8638 9.3488 15.8326 9.25305C15.8236 9.1742 15.8079 9.09627 15.7856 9.0201C15.7274 8.89608 15.6507 8.78164 15.5581 8.68068C15.5338 8.65171 15.5214 8.61352 15.4948 8.58672C15.3949 8.4945 15.2818 8.41772 15.1592 8.35891C15.1244 8.34035 15.0986 8.30898 15.062 8.29346C14.9575 8.25865 14.8493 8.23638 14.7396 8.22712C14.6719 8.2073 14.6026 8.19308 14.5326 8.18459L13.6404 8.18182H13.6364C13.3174 8.18029 13.008 8.2912 12.7626 8.49505C12.5173 8.6989 12.3515 8.98268 12.2945 9.29656C12.2376 9.61044 12.293 9.93436 12.4511 10.2115C12.6091 10.4885 12.8598 10.7011 13.159 10.8118V17.4809C10.998 15.2377 9.56716 12.3927 9.05474 9.32045C9.02483 9.14392 8.96045 8.97499 8.86526 8.82334C8.77007 8.67168 8.64594 8.54026 8.49996 8.43657C8.35399 8.33289 8.18901 8.25897 8.01447 8.21904C7.83992 8.17911 7.65922 8.17395 7.48268 8.20385C7.30614 8.23376 7.13722 8.29815 6.98556 8.39333C6.83391 8.48852 6.70248 8.61265 6.5988 8.75863C6.49511 8.9046 6.4212 9.06958 6.38127 9.24412C6.34134 9.41867 6.33618 9.59937 6.36608 9.77591C7.16298 14.5249 9.81115 18.7637 13.7296 21.5626C13.7855 21.596 13.8437 21.6254 13.9039 21.6505C13.9511 21.6782 14 21.7029 14.0504 21.7244C14.2027 21.7852 14.3647 21.8179 14.5286 21.8209C14.7292 21.8184 14.9267 21.771 15.1065 21.682C15.1201 21.6756 15.1357 21.6786 15.1492 21.6718C15.2697 21.609 15.3801 21.5284 15.4766 21.4327C15.496 21.4138 15.5089 21.3906 15.5273 21.3706C15.6152 21.274 15.6887 21.165 15.7453 21.0472C15.7643 21.0081 15.7816 20.9707 15.7968 20.9296C15.8568 20.7792 15.8891 20.6192 15.8922 20.4573L15.8929 17.5582C16.7378 17.8063 17.4991 18.28 18.0948 18.9285L20.342 21.3787C20.4629 21.5112 20.6087 21.6184 20.7711 21.6944C20.9335 21.7704 21.1093 21.8136 21.2885 21.8215C21.4676 21.8295 21.6465 21.802 21.815 21.7407C21.9835 21.6794 22.1382 21.5854 22.2704 21.4643C22.4025 21.3431 22.5094 21.197 22.585 21.0344C22.6607 20.8718 22.7035 20.696 22.711 20.5168C22.7185 20.3377 22.6907 20.1588 22.629 19.9905C22.5673 19.8221 22.473 19.6676 22.3515 19.5357L20.105 17.0854ZM19.1901 0H10.8239C2.42764 0 0 2.42498 0 10.8092V19.1761C0 27.5724 2.42431 30 10.8099 30H19.1761C27.5724 30 30 27.575 30 19.1908V10.8239C30 2.42764 27.5757 0 19.1901 0ZM27.2727 19.1908C27.2727 26.0636 26.0622 27.2727 19.1761 27.2727H10.8099C3.93577 27.2727 2.72727 26.0622 2.72727 19.1761V10.8092C2.72727 3.93644 3.93777 2.72727 10.8239 2.72727H19.1901C26.0642 2.72727 27.2727 3.93777 27.2727 10.8239V19.1908Z" fill="#F5F5F5"/>
</svg>
