<svg width="35" height="29" viewBox="0 0 35 29" fill="none" xmlns="http://www.w3.org/2000/svg">
<path d="M22.5575 11.745L17.3075 8.59125C16.8411 8.30584 16.3092 8.15528 15.7675 8.15528C15.2258 8.15528 14.6939 8.30584 14.2275 8.59125C13.7575 8.86566 13.3679 9.26657 13.0999 9.75155C12.8318 10.2365 12.6954 10.7875 12.705 11.3463V17.6537C12.6954 18.2125 12.8318 18.7635 13.0999 19.2484C13.3679 19.7334 13.7575 20.1343 14.2275 20.4088C14.6939 20.6942 15.2258 20.8447 15.7675 20.8447C16.3092 20.8447 16.8411 20.6942 17.3075 20.4088L22.5575 17.255C23.0063 16.9697 23.377 16.57 23.6342 16.094C23.8913 15.618 24.0264 15.0817 24.0264 14.5363C24.0264 13.9908 23.8913 13.4545 23.6342 12.9785C23.377 12.5025 23.0063 12.1028 22.5575 11.8175V11.745ZM16.17 16.8925V12.1075L20.16 14.5L16.17 16.8925ZM29.75 0H5.25C3.85761 0 2.52226 0.572878 1.53769 1.59261C0.553124 2.61234 0 3.99539 0 5.4375V23.5625C0 25.0046 0.553124 26.3877 1.53769 27.4074C2.52226 28.4271 3.85761 29 5.25 29H29.75C31.1424 29 32.4777 28.4271 33.4623 27.4074C34.4469 26.3877 35 25.0046 35 23.5625V5.4375C35 3.99539 34.4469 2.61234 33.4623 1.59261C32.4777 0.572878 31.1424 0 29.75 0ZM31.5 23.5625C31.5 24.0432 31.3156 24.5042 30.9874 24.8441C30.6593 25.184 30.2141 25.375 29.75 25.375H5.25C4.78587 25.375 4.34075 25.184 4.01256 24.8441C3.68437 24.5042 3.5 24.0432 3.5 23.5625V5.4375C3.5 4.9568 3.68437 4.49578 4.01256 4.15587C4.34075 3.81596 4.78587 3.625 5.25 3.625H29.75C30.2141 3.625 30.6593 3.81596 30.9874 4.15587C31.3156 4.49578 31.5 4.9568 31.5 5.4375V23.5625Z" fill="#F5F5F5"/>
</svg>
