<svg width="168" height="38" viewBox="0 0 168 38" fill="none" xmlns="http://www.w3.org/2000/svg">
<path d="M81.9437 12.5061V29.9106H78.2118V27.6424C77.5829 28.4712 76.7862 29.0818 75.8218 29.518C74.8574 29.9106 73.8091 30.1287 72.677 30.1287C71.0417 30.1287 69.5741 29.7798 68.3162 29.0382C67.0164 28.2967 66.052 27.2498 65.2972 25.8976C64.5844 24.5453 64.207 22.975 64.207 21.2302C64.207 19.4417 64.5844 17.8714 65.2972 16.5628C66.01 15.2106 67.0164 14.2073 68.3162 13.4658C69.6161 12.7242 71.0417 12.3752 72.677 12.3752C73.7672 12.3752 74.7735 12.5497 75.6541 12.9423C76.5766 13.3349 77.3313 13.902 78.0022 14.6871V12.5497H81.9437V12.5061ZM76.7023 25.156C77.6248 24.1527 78.128 22.8441 78.128 21.2302C78.128 19.6162 77.6667 18.3076 76.7023 17.3043C75.7799 16.3011 74.5639 15.8213 73.1382 15.8213C71.7126 15.8213 70.4966 16.3011 69.5741 17.3043C68.6517 18.3076 68.1904 19.6162 68.1904 21.2302C68.1904 22.8441 68.6517 24.1527 69.5741 25.156C70.4966 26.1593 71.6707 26.6391 73.1382 26.6391C74.5639 26.6391 75.7379 26.1593 76.7023 25.156Z" fill="#1B2733"/>
<path d="M98.4204 13.4222C99.7203 14.1638 100.727 15.2106 101.439 16.5629C102.152 17.9151 102.53 19.4418 102.53 21.2303C102.53 22.9751 102.152 24.5454 101.439 25.8976C100.727 27.2499 99.7203 28.2968 98.4204 29.0383C97.1206 29.7798 95.6949 30.1288 94.0596 30.1288C91.7954 30.1288 90.0343 29.3436 88.6925 27.7733V36.192H84.793V12.5062H88.5248V14.7744C89.1538 13.9457 89.9504 13.335 90.9148 12.8988C91.8792 12.5062 92.9275 12.2881 94.0596 12.2881C95.6949 12.3317 97.1206 12.6807 98.4204 13.4222ZM97.1625 25.1561C98.085 24.1528 98.5462 22.8442 98.5462 21.2303C98.5462 19.6163 98.085 18.3077 97.1625 17.3044C96.24 16.3012 95.066 15.8213 93.5984 15.8213C92.6759 15.8213 91.7954 16.0394 91.0826 16.4756C90.3278 16.9118 89.7408 17.5661 89.2796 18.3949C88.8602 19.2237 88.6087 20.1834 88.6087 21.2739C88.6087 22.3644 88.8183 23.324 89.2796 24.1528C89.6989 24.9816 90.3278 25.5923 91.0826 26.0721C91.8373 26.5083 92.6759 26.7264 93.5984 26.7264C95.066 26.6392 96.24 26.1594 97.1625 25.1561Z" fill="#1B2733"/>
<path d="M126.013 29.5615C124.713 29.2125 123.707 28.7327 122.91 28.1657L124.42 25.0686C125.174 25.5921 126.055 26.0283 127.145 26.3336C128.193 26.6389 129.242 26.8134 130.248 26.8134C132.596 26.8134 133.77 26.1591 133.77 24.8941C133.77 24.2834 133.477 23.8472 132.89 23.6291C132.303 23.411 131.338 23.1493 130.038 22.9312C128.655 22.7131 127.523 22.4514 126.684 22.1897C125.803 21.9279 125.049 21.4045 124.42 20.7066C123.791 20.0086 123.455 19.0054 123.455 17.7404C123.455 16.0828 124.126 14.7742 125.426 13.7709C126.768 12.7677 128.529 12.2878 130.793 12.2878C131.925 12.2878 133.099 12.4187 134.231 12.6804C135.364 12.9421 136.328 13.3347 137.041 13.7709L135.531 16.868C134.106 15.9956 132.512 15.5594 130.751 15.5594C129.619 15.5594 128.739 15.7338 128.151 16.0828C127.564 16.4318 127.271 16.9116 127.271 17.4787C127.271 18.133 127.606 18.6128 128.235 18.8745C128.864 19.1362 129.871 19.398 131.212 19.6597C132.554 19.8778 133.644 20.1395 134.483 20.4012C135.322 20.663 136.076 21.1428 136.705 21.8407C137.334 22.495 137.628 23.4547 137.628 24.7196C137.628 26.3336 136.957 27.6422 135.573 28.6455C134.231 29.6051 132.386 30.1286 130.038 30.1286C128.613 30.1286 127.313 29.9541 126.013 29.5615Z" fill="#1B2733"/>
<path d="M148.529 28.9509C148.068 29.3435 147.523 29.6489 146.852 29.8234C146.181 29.9978 145.51 30.1287 144.755 30.1287C142.91 30.1287 141.485 29.6489 140.478 28.6456C139.472 27.6423 138.969 26.2029 138.969 24.2836V15.9085V12.6369V8.66748H142.868V12.6369H147.355V15.9085H142.868V24.1963C142.868 25.0251 143.078 25.6794 143.455 26.1156C143.833 26.5518 144.42 26.7699 145.174 26.7699C146.055 26.7699 146.768 26.5518 147.355 26.072L148.529 28.9509Z" fill="#1B2733"/>
<path d="M166.518 12.5061V29.9106H162.786V27.6424C162.157 28.4712 161.36 29.0818 160.396 29.518C159.432 29.9106 158.383 30.1287 157.251 30.1287C155.616 30.1287 154.148 29.7798 152.89 29.0382C151.591 28.2967 150.626 27.2498 149.871 25.8976C149.159 24.5453 148.781 22.975 148.781 21.2302C148.781 19.4417 149.159 17.8714 149.871 16.5628C150.584 15.2106 151.591 14.2073 152.89 13.4658C154.19 12.7242 155.616 12.3752 157.251 12.3752C158.341 12.3752 159.348 12.5497 160.228 12.9423C161.151 13.3349 161.906 13.902 162.576 14.6871V12.5497H166.518V12.5061ZM161.277 25.156C162.199 24.1527 162.702 22.8441 162.702 21.2302C162.702 19.6162 162.241 18.3076 161.277 17.3043C160.354 16.3011 159.138 15.8213 157.712 15.8213C156.287 15.8213 155.071 16.3011 154.148 17.3043C153.226 18.3076 152.765 19.6162 152.765 21.2302C152.765 22.8441 153.226 24.1527 154.148 25.156C155.071 26.1593 156.245 26.6391 157.712 26.6391C159.138 26.6391 160.354 26.1593 161.277 25.156Z" fill="#1B2733"/>
<path d="M53.0926 20.3139H49.0253V29.9104H45V7.09692H49.0253V16.6498H53.2184L59.508 7.09692H63.8269L56.3632 18.1329L64.1204 29.8667H59.508L53.0926 20.3139Z" fill="#1B2733"/>
<path d="M156.664 9.58359C156.538 9.45273 156.496 9.32187 156.496 9.10377C156.496 8.92929 156.538 8.7548 156.664 8.62394C156.79 8.49308 156.915 8.44946 157.125 8.44946C157.293 8.44946 157.461 8.49308 157.586 8.62394C157.712 8.7548 157.754 8.88567 157.754 9.10377C157.754 9.27825 157.712 9.45273 157.586 9.58359C157.461 9.71445 157.335 9.75807 157.125 9.75807C156.957 9.75807 156.79 9.71445 156.664 9.58359Z" fill="#59C133"/>
<path d="M161.988 5.78843C162.282 5.96292 162.533 6.22464 162.743 6.52998C162.911 6.83532 162.995 7.22791 162.995 7.62049C162.995 8.05669 162.911 8.40566 162.743 8.711C162.575 9.01634 162.324 9.27806 161.988 9.45254C161.695 9.62702 161.317 9.71427 160.94 9.71427C160.647 9.71427 160.395 9.67065 160.185 9.5834C159.934 9.49616 159.766 9.32168 159.598 9.1472V9.67064H158.676V4H159.64V6.09378C159.808 5.9193 159.976 5.78843 160.227 5.70119C160.437 5.61395 160.688 5.57033 160.94 5.57033C161.317 5.52671 161.695 5.61395 161.988 5.78843ZM161.695 8.58014C161.904 8.36203 162.03 8.01307 162.03 7.66411C162.03 7.27153 161.904 6.96618 161.695 6.74808C161.485 6.52998 161.192 6.39912 160.814 6.39912C160.605 6.39912 160.395 6.44274 160.185 6.5736C160.018 6.66084 159.85 6.83532 159.766 7.0098C159.64 7.18429 159.598 7.44601 159.598 7.70773C159.598 7.96945 159.64 8.18755 159.766 8.40566C159.892 8.58014 160.018 8.75462 160.185 8.84186C160.353 8.9291 160.563 9.01634 160.814 9.01634C161.192 8.9291 161.485 8.84186 161.695 8.58014Z" fill="#59C133"/>
<path d="M167.648 5.57056L165.719 10.0198C165.551 10.456 165.341 10.805 165.048 10.9795C164.796 11.154 164.503 11.2412 164.125 11.2412C163.916 11.2412 163.706 11.1976 163.538 11.154C163.329 11.0667 163.161 10.9795 163.035 10.8922L163.413 10.1943C163.496 10.2816 163.622 10.3688 163.748 10.4124C163.874 10.456 164 10.4997 164.125 10.4997C164.293 10.4997 164.419 10.456 164.545 10.3688C164.67 10.2816 164.754 10.1507 164.838 9.93259L164.922 9.75811L163.119 5.61418H164.125L165.425 8.6676L166.725 5.61418H167.648V5.57056Z" fill="#59C133"/>
<path d="M6.36863 8.75006C5.70473 8.85251 5.14041 9.29643 4.77527 9.87694C4.41012 10.4575 4.27734 11.1404 4.27734 11.8234C4.27734 13.4283 5.24 14.9991 6.60099 15.7504C7.06572 14.1454 7.49726 12.5405 7.96199 10.9355C8.06157 10.5599 8.19435 10.116 8.09477 9.74035C7.96199 8.9891 7.09892 8.61347 6.36863 8.75006Z" fill="#184F00"/>
<path d="M11.8116 25.414L26.8489 6.80339L24.9568 5.19845C20.5419 1.40804 13.5377 2.43247 9.38837 7.58879C5.239 12.7451 5.43817 19.9503 9.8531 23.7407C10.0191 23.8773 10.185 24.0139 10.351 24.1164L11.8116 25.414Z" fill="#F2A500"/>
<path d="M13.4062 4.24217C13.8046 4.03728 14.2029 3.86654 14.6013 3.6958L23.3316 11.1742L22.6013 12.0962L13.4062 4.24217Z" fill="#E38B00"/>
<path d="M11.3477 5.60822C11.6796 5.33504 11.9784 5.096 12.3103 4.89111L21.8041 13.0183L21.0738 13.9403L11.3477 5.60822Z" fill="#E38B00"/>
<path d="M26.2873 7.52063L25.557 8.44263L19.1172 2.94482C19.8807 2.97897 20.611 3.08142 21.3413 3.2863L26.2873 7.52063Z" fill="#E38B00"/>
<path d="M9.6543 7.24749C9.91986 6.94016 10.1854 6.66698 10.451 6.3938L20.3431 14.8625L19.6128 15.7845L9.6543 7.24749Z" fill="#FDC100"/>
<path d="M15.8945 3.2871C16.3925 3.15051 16.8904 3.08221 17.3883 3.01392L24.7908 9.36542L24.0605 10.2874L15.8945 3.2871Z" fill="#E38B00"/>
<path d="M7.19922 11.3793C7.332 11.0037 7.49797 10.6281 7.69714 10.2524L17.3901 18.5504L16.6266 19.4382L7.19922 11.3793Z" fill="#FDC100"/>
<path d="M7.69898 21.1458C7.30064 20.3945 6.96869 19.6091 6.73633 18.7896L12.9106 24.0483L12.1803 24.9703L7.69898 21.1458Z" fill="#FDC100"/>
<path d="M6.43562 16.9453C6.40242 16.4331 6.36923 15.8867 6.40242 15.3403L14.4024 22.204L13.6721 23.126L6.43562 16.9453Z" fill="#FDC100"/>
<path d="M8.26172 9.1939C8.46089 8.85242 8.69325 8.51094 8.92562 8.20361L18.8841 16.7064L18.1538 17.6284L8.26172 9.1939Z" fill="#FDC100"/>
<path d="M6.53711 13.9065C6.6035 13.4626 6.70308 13.0187 6.80267 12.6089L15.8649 20.3604L15.1346 21.2824L6.53711 13.9065Z" fill="#FDC100"/>
<path d="M27.3524 22.9547C31.522 17.8138 31.3213 10.5914 26.9041 6.82311C22.4869 3.05482 15.526 4.16756 11.3564 9.30848C7.18677 14.4494 7.38746 21.6717 11.8046 25.44C16.2218 29.2083 23.1827 28.0956 27.3524 22.9547Z" fill="#FED900"/>
<path d="M25.4689 20.686C28.7282 16.6553 28.571 10.9924 25.1178 8.03754C21.6647 5.08271 16.2232 5.9549 12.9639 9.98564C9.70466 14.0164 9.86183 19.6793 13.315 22.6341C16.7681 25.589 22.2096 24.7168 25.4689 20.686Z" fill="#FEEF94"/>
<path d="M11.8789 25.4827C16.2938 29.2048 23.1984 28.0779 27.3146 22.9557C27.9453 22.1703 28.4764 21.3508 28.9079 20.4971L11.8789 25.4827Z" fill="#FEEF94"/>
<path d="M29.9715 17.5942C30.1375 16.9795 30.2371 16.3307 30.2703 15.7161L9.45703 22.3749C9.72259 22.8871 10.0213 23.3993 10.3533 23.8433L29.9715 17.5942Z" fill="#FEEF94"/>
<path d="M25.5841 21.4822C28.8434 17.4514 28.6862 11.7885 25.2331 8.83369C21.7799 5.87885 16.3384 6.75105 13.0792 10.7818C9.8199 14.8125 9.97706 20.4754 13.4302 23.4303C16.8834 26.3851 22.3248 25.5129 25.5841 21.4822Z" fill="#FDC100"/>
<path d="M26.75 10.6282C26.7833 10.6965 26.8166 10.7306 26.8499 10.7989C26.8166 10.7306 26.7833 10.6965 26.75 10.6282Z" fill="#F2A500"/>
<path d="M26.916 10.9016C27.0159 11.0724 27.0825 11.2089 27.1491 11.3797C27.0825 11.2431 27.0159 11.0724 26.916 10.9016Z" fill="#F2A500"/>
<path d="M27.1484 11.4136C27.1817 11.4819 27.215 11.5843 27.2483 11.6868C27.2483 11.5843 27.215 11.4819 27.1484 11.4136Z" fill="#F2A500"/>
<path d="M27.3145 11.7209C27.3477 11.8234 27.381 11.8917 27.4143 11.9941C27.381 11.8917 27.3477 11.8234 27.3145 11.7209Z" fill="#F2A500"/>
<path d="M13.306 22.6141C11.945 21.4531 11.1152 19.8823 10.7832 18.1749C10.9824 20.1896 11.8786 22.0678 13.4388 23.3995C16.8911 26.3704 22.3351 25.4825 25.5882 21.4531C27.8786 18.6188 28.4761 14.965 27.4139 11.9941C27.5467 12.4039 27.6794 12.8137 27.7458 13.2235C28.0114 15.7163 27.2479 18.4481 25.4554 20.6677C22.2023 24.6971 16.7583 25.585 13.306 22.6141Z" fill="#F2A500"/>
<path d="M25.7871 9.36475C25.8204 9.39889 25.8537 9.43304 25.887 9.46719C25.8537 9.43304 25.8204 9.39889 25.7871 9.36475Z" fill="#F2A500"/>
<path d="M26.0527 9.63794C26.086 9.67209 26.1193 9.70624 26.1193 9.74038C26.086 9.70624 26.086 9.67209 26.0527 9.63794Z" fill="#F2A500"/>
<path d="M25.5215 9.09155C25.5548 9.12609 25.5881 9.16062 25.6214 9.16062C25.5548 9.12609 25.5548 9.09155 25.5215 9.09155Z" fill="#F2A500"/>
<path d="M26.5508 10.321C26.5841 10.3893 26.6174 10.4235 26.6507 10.4918C26.6174 10.4235 26.5841 10.3893 26.5508 10.321Z" fill="#F2A500"/>
<path d="M26.3516 10.0137C26.3849 10.0478 26.4182 10.082 26.4514 10.1503C26.4182 10.1161 26.3849 10.0478 26.3516 10.0137Z" fill="#F2A500"/>
<path opacity="0.36" d="M24.2936 36C31.5902 36 37.5053 35.4191 37.5053 34.7024C37.5053 33.9858 31.5902 33.4048 24.2936 33.4048C16.9971 33.4048 11.082 33.9858 11.082 34.7024C11.082 35.4191 16.9971 36 24.2936 36Z" fill="#B8B8F2"/>
<path d="M5.80291 15.9208C4.67428 15.3745 3.47926 15.3403 2.61619 16.2282C1.8859 16.9794 1.58715 18.1063 1.65354 19.199C1.75312 20.2576 2.18465 21.282 2.81536 22.1357C3.44606 22.9894 4.17635 23.7407 4.93984 24.4919L8.25934 25.9944C8.45851 22.9553 5.60374 18.96 5.80291 15.9208Z" fill="#184F00"/>
<path d="M34.6481 8.44291C33.9178 8.37462 33.0879 8.78439 32.9552 9.53565C32.8888 9.94542 33.0216 10.3552 33.1543 10.7308C33.7186 12.3016 33.6191 15.17 34.1834 16.7408C35.5112 15.8871 36.9718 12.9846 36.9054 11.3796C36.8722 10.6967 36.673 10.0137 36.2747 9.46735C35.8763 8.92098 35.2788 8.51121 34.6481 8.44291Z" fill="#184F00"/>
<path opacity="0.42" d="M21.6691 20.2235H18.416L21.2708 11.9255L21.6691 12.5061V20.2235Z" fill="#F15A24"/>
<path opacity="0.42" d="M20.9733 15.1357H16.1601L15.7285 14.5552L20.9733 12.5063V15.1357Z" fill="#F15A24"/>
<path d="M21.2375 11.9258H17.9844V19.6432H21.2375V11.9258Z" fill="#FFE31B"/>
<path d="M20.5418 11.9258H15.7285V14.5552H20.5418V11.9258Z" fill="#FFE31B"/>
<path d="M27.1479 0.998507C25.9197 1.1351 25.2226 2.15953 24.957 3.38886C27.4135 5.09625 29.4384 6.80364 31.8948 8.47688L32.0608 7.93052C31.9612 6.87194 31.8616 5.77921 31.5628 4.75477C31.2641 3.73033 30.7662 2.74005 30.0027 2.02294C29.2392 1.30584 28.1769 0.861915 27.1479 0.998507Z" fill="#184F00"/>
<path d="M24.2258 21.6581C24.3918 21.0776 24.8234 20.5653 25.0889 20.019C25.6532 18.8579 25.9188 17.5603 26.0516 16.2627C26.3835 13.5992 26.3171 10.8332 25.5868 8.23796C24.8566 5.64273 23.396 3.21823 21.3047 1.61328C23.396 1.71572 25.3545 2.74016 27.1802 3.83289C28.5744 4.68659 30.0018 5.64273 30.9312 7.00864C31.8275 8.34041 32.1926 9.91121 32.5246 11.482C32.9229 13.2918 33.2881 15.1358 33.1221 16.9798C32.9229 19.2336 31.9603 21.3507 30.4997 23.024C29.0391 24.6972 27.1138 25.9265 25.0557 26.6778C25.0557 24.9704 23.7943 23.2972 24.2258 21.6581Z" fill="#247700"/>
<path opacity="0.56" d="M20.6735 12.5063H19.5449V18.6188H20.6735V12.5063Z" fill="#FFF456"/>
<path d="M28.4748 18.4823C31.0308 12.9162 26.9146 6.97449 23.8939 2.15965C23.064 1.85232 22.201 1.64743 21.3379 1.61328C23.4624 3.21823 24.8898 5.64273 25.62 8.23796C26.3503 10.8332 26.4167 13.5992 26.0848 16.2627C25.9188 17.5603 25.6864 18.8579 25.1221 20.019C24.8566 20.5653 24.425 21.0775 24.259 21.6581C23.8275 23.3313 25.0557 24.9704 25.0557 26.7119C25.6532 26.5071 26.2507 26.2339 26.8483 25.9265C25.1221 23.6386 27.4126 20.8385 28.4748 18.4823Z" fill="#184F00"/>
<path d="M26.4494 6.76937C26.7813 9.4329 27.412 11.9257 27.3788 14.5892C27.3456 17.2528 26.3498 20.0529 24.2253 21.6237C25.9182 18.004 26.3166 13.7697 25.3207 9.87682C24.3913 6.15471 22.7315 4.20828 19.8104 1.98867C19.5116 1.78379 19.412 1.37401 19.578 1.03253C20.6734 -1.15293 25.8187 1.78379 26.4494 6.76937Z" fill="#41A716"/>
<path d="M17.5546 29.3071C16.5919 28.7608 16.2932 27.5315 16.0608 26.4387C15.7289 24.7313 15.4301 22.8191 16.2932 21.3166C16.6915 20.6336 17.3222 20.1214 17.9861 19.7116C20.5753 18.1067 23.8948 18.1067 26.484 16.5017C28.8409 15.0334 30.1687 12.1991 30.8326 9.43311C33.0898 11.7893 34.1521 15.5456 33.5546 18.7896C32.9571 22.0337 30.9654 24.9362 28.3098 26.8144C25.6542 28.6925 22.4342 29.5803 19.2143 29.6145C18.65 29.6145 18.0525 29.5803 17.5546 29.3071Z" fill="#247700"/>
<path d="M30.9665 9.43311C30.3026 12.1991 28.8752 15.0334 26.5184 16.5017C23.9292 18.1067 20.6097 18.1067 18.0205 19.7116C17.3566 20.1214 16.7258 20.6336 16.3275 21.3166C15.4312 22.8191 15.7632 24.6972 16.0951 26.4387C16.2943 27.5315 16.6263 28.7608 17.5889 29.3072C17.7549 29.4096 17.9209 29.4437 18.0868 29.512C16.9582 26.7802 16.7922 22.4434 18.8171 21.8288C29.2404 18.653 30.5018 14.8968 31.7632 14.6236C33.0246 14.3504 33.3565 14.9992 33.6221 15.5114C33.3233 13.2235 32.4935 11.0039 30.9665 9.43311Z" fill="#46B314"/>
<path d="M33.7515 20.0189C33.0876 22.0677 32.4901 24.3215 30.5315 26.5752C28.9714 28.3509 26.1166 28.8632 23.793 29.2729C24.3573 28.0436 24.6892 26.5411 24.5565 25.141C24.4569 24.219 24.3905 23.3312 24.5233 22.4434C24.7224 21.0433 25.4859 19.7798 26.2826 18.6188C27.4776 16.9456 28.8386 15.443 30.0004 13.7698C31.1623 12.0966 32.4237 7.5549 33.7847 5.94995C32.656 9.46718 35.5108 14.5894 33.7515 20.0189Z" fill="#247700"/>
<path d="M32.9239 14.8283C32.5919 14.521 32.0608 14.5552 31.6625 14.7259C31.231 14.9649 30.9322 15.3064 30.6002 15.6479C28.5422 17.9699 26.3845 20.4286 25.6542 23.4678C25.2227 25.2434 25.2891 27.1216 25.2559 28.9656C26.4841 28.7265 27.6791 28.4533 28.7081 27.9411C32.7247 24.2532 33.4218 18.9602 33.5214 16.7406C33.621 15.5113 33.3886 15.2723 32.9239 14.8283Z" fill="#184F00"/>
<path d="M32.9881 25.6532C32.5898 25.7557 32.0255 25.8581 31.3616 25.824C30.7309 25.824 30.0006 25.6874 29.3699 25.4825C28.7392 25.2776 28.1748 25.0044 27.7765 24.7995C27.5773 24.6971 27.4114 24.5946 27.2786 24.5605C27.1458 24.4922 27.0462 24.4922 27.013 24.5263C26.9798 24.5605 27.013 24.6629 27.0794 24.7654C27.1458 24.902 27.2786 25.0386 27.4778 25.2093C27.8429 25.5508 28.4404 25.9264 29.1043 26.1996C29.8014 26.4728 30.5981 26.6093 31.3284 26.6093C32.0587 26.6093 32.6894 26.4728 33.1541 26.3703C33.4529 26.2679 33.3533 25.5849 32.9881 25.6532Z" fill="#76D84C"/>
<path d="M17.7875 25.7898C17.356 25.6873 16.8912 25.619 16.4929 25.5849C14.3684 25.4483 12.2108 25.7556 10.1195 25.4141C9.12362 25.2434 8.16096 24.9361 7.2647 24.5263C6.50121 23.297 5.9369 22.0335 5.60495 20.8383C5.10702 19.0626 5.07383 17.6284 4.67549 15.6479C4.67549 15.6137 4.67549 15.5796 4.64229 15.5796C4.40993 14.4868 4.07798 13.2234 3.48047 11.6184C4.04478 12.677 5.67134 15.5796 7.33109 16.9796C8.69208 18.1406 12.6755 19.6773 13.9701 20.8042C15.7958 22.375 16.6921 24.2531 17.7875 25.7898Z" fill="#247700"/>
<path d="M26.6164 28.6924C24.4255 30.0242 18.8819 32.1414 13.8363 30.5364C12.3093 30.0242 10.6496 28.7949 9.25537 27.2241C8.52508 26.4045 7.82799 25.4825 7.26367 24.5605C8.15994 24.9703 9.12259 25.2777 10.1184 25.4484C12.2097 25.7899 14.3674 25.5167 16.4919 25.6191C16.9234 25.6533 17.3549 25.7216 17.7865 25.824C18.2512 26.4387 18.7491 27.0192 19.3466 27.4973C20.8072 28.5558 22.8985 29.1364 26.6164 28.6924Z" fill="#59C133"/>
<path d="M23.0314 30.2291C21.1061 29.4437 18.7824 29.6828 17.0563 28.5217C16.0272 27.8388 15.3301 26.746 14.5334 25.7558C13.438 24.3557 12.1102 23.1264 10.6496 22.1361C10.0521 21.7263 9.38822 21.3165 8.65793 21.2482C8.02723 21.18 7.26374 21.4531 7.09777 22.1019C6.99818 22.4776 7.13097 22.8532 7.23055 23.2288C7.5293 24.1508 7.86125 25.0728 8.2264 25.9948C9.85295 28.1461 11.911 29.9218 13.8363 30.5365C17.0231 31.5609 20.409 31.0828 23.0314 30.2291Z" fill="#184F00"/>
<path d="M9.68476 29.8535C10.0831 29.7852 10.6474 29.6486 11.2449 29.3754C11.8424 29.1364 12.4399 28.7266 12.9711 28.3168C13.469 27.8729 13.9005 27.429 14.1661 27.0533C14.2989 26.8826 14.4316 26.7119 14.5312 26.6436C14.6308 26.5411 14.6972 26.507 14.7636 26.5411C14.83 26.5753 14.83 26.6436 14.7968 26.8143C14.7636 26.9509 14.6972 27.1558 14.5976 27.3948C14.3653 27.8387 13.9669 28.4193 13.4358 28.9315C12.9047 29.4437 12.2076 29.8876 11.5437 30.1608C10.8798 30.434 10.2159 30.5706 9.78435 30.6389C9.48559 30.6047 9.35281 29.8876 9.68476 29.8535Z" fill="#76D84C"/>
<path d="M3.94318 14.0089C5.00542 16.2626 6.69836 18.3115 8.98882 19.0969C10.6486 19.6774 12.6403 19.6091 13.9681 20.8043C13.1714 19.575 11.8436 18.8579 10.5158 18.2432C9.18799 17.6627 7.82699 17.0822 6.83114 16.0236C5.96807 15.0675 5.50334 13.8382 5.23778 12.5747C5.03861 11.721 4.97222 10.7648 5.33737 9.9453C5.70251 9.12575 7.06351 8.81842 7.82699 9.19404C7.39546 8.16961 5.70251 7.58909 4.73986 8.10131C3.7772 8.57938 3.21289 9.70626 3.17969 10.8331C3.1133 11.9259 3.47845 13.0186 3.94318 14.0089Z" fill="#41A716"/>
<path d="M15.6641 29.6485C25.0251 30.1948 23.7636 24.9361 27.8134 20.9749C29.0416 19.7456 32.9255 17.9699 34.2201 16.7064C35.7802 15.2039 37.2408 12.1989 37.7387 11.1062C36.2782 15.7503 36.7761 17.6626 36.2118 20.4627C35.3155 24.4239 31.83 29.3753 28.5105 30.6729C23.5977 32.6193 17.9213 30.8436 15.6641 29.6485Z" fill="#184F00"/>
<path d="M19.3457 30.9805C21.2046 30.0585 23.5283 30.1609 25.2212 28.8974C26.2171 28.1462 26.8478 27.0193 27.5449 25.9607C28.5739 24.4924 29.8021 23.1606 31.1963 22.0679C31.7606 21.624 32.4245 21.18 33.1216 21.0434C33.7523 20.941 34.5158 21.18 34.715 21.7947C34.8478 22.1703 34.7482 22.546 34.6486 22.9216C34.383 23.8777 34.1507 24.7997 33.8187 25.7217C32.3249 27.9755 30.3996 29.8877 28.5075 30.6048C25.4204 31.9025 22.0013 31.6293 19.3457 30.9805Z" fill="#247700"/>
<path d="M37.3727 13.5312C36.4764 15.8532 34.883 18.0045 32.659 18.9607C31.0324 19.6436 29.0407 19.7119 27.7793 20.9754C28.4764 19.6778 29.8042 18.8924 31.0656 18.2094C32.327 17.5265 33.688 16.8777 34.6175 15.7508C35.4141 14.7605 35.8125 13.4629 36.0117 12.1994C36.1444 11.3116 36.1776 10.3554 35.7461 9.60417C35.3146 8.81877 33.9536 8.57974 33.2233 9.02366C33.5884 7.99923 35.2482 7.28212 36.244 7.72604C37.2399 8.13582 37.8374 9.22855 37.9702 10.3554C38.1029 11.4823 37.771 12.5067 37.3727 13.5312Z" fill="#41A716"/>
<path d="M13.1731 33.268C15.1316 33.9851 17.2561 34.9071 20.1773 34.6681C22.169 34.4973 23.9947 33.029 25.5881 31.5948C25.92 31.2874 25.8204 30.7069 25.3889 30.5362C24.4262 30.1947 23.4968 29.6483 22.7665 28.9312C22.1358 28.3166 21.4719 27.6678 20.7084 27.258C19.4802 26.575 18.0528 26.4043 16.6918 26.336C14.7001 26.2677 12.6752 26.4726 10.6835 26.3702C8.6918 26.2677 4.44285 24.5262 2.35156 24.6286C5.73745 25.9262 7.92832 31.3557 13.1731 33.268Z" fill="#184F00"/>
<path d="M11.2477 31.595C11.2145 31.2535 11.4137 30.8096 11.7457 30.6388C12.0444 30.4681 12.4096 30.4339 12.7415 30.3998C14.9988 30.1949 17.3556 30.0242 19.4469 30.9803C20.6087 31.4925 21.6046 32.3462 22.6336 33.1316C22.7 33.1999 22.7 33.3023 22.6336 33.3365C22.6336 33.3365 22.6336 33.3365 22.6004 33.3706C21.3058 34.5317 19.5797 35.1463 17.8535 34.9756C15.1647 34.7024 13.0071 33.4048 12.0112 32.6877C11.3805 32.2096 11.2809 31.9706 11.2477 31.595Z" fill="#247700"/>
<path d="M22.3008 28.4873C21.4046 28.0775 20.4087 27.7019 19.3797 27.4628C18.1847 27.1555 16.9232 27.0189 15.7282 27.0189C13.5705 27.0531 11.4129 27.2921 9.2552 27.1896C9.222 27.1896 9.18881 27.1896 9.12242 27.1896C6.93155 27.0872 4.70749 26.6091 2.88176 25.3115C1.08923 24.0139 -0.205373 21.8284 0.0269916 19.5747C0.226162 17.3892 2.28425 15.1013 4.6411 15.5452C4.6411 15.5794 4.6411 15.6135 4.67429 15.6135C3.21371 15.955 1.9855 16.9453 1.85272 18.2429C1.78633 18.9942 2.15147 19.7113 2.54981 20.3601C3.71164 22.1699 5.37139 23.6041 7.2635 24.492C8.15976 24.9017 9.12242 25.2091 10.1183 25.3798C12.2096 25.7213 14.3672 25.4481 16.4917 25.5505C16.9232 25.5847 17.3548 25.653 17.7863 25.7554C19.5456 26.1652 21.2718 27.0872 22.3008 28.4873Z" fill="#41A716"/>
<path d="M15.7285 22.8532C15.9941 20.6677 17.7866 19.0286 19.7119 18.1067C21.6372 17.1847 23.7617 16.7407 25.6538 15.7505C27.5791 14.7943 30.8322 11.6186 30.8986 9.43311C31.0978 11.0722 31.6621 13.3601 30.0024 14.9651C28.3426 16.57 25.4214 18.0384 22.7659 18.7555C20.0771 19.4384 17.1559 20.4287 15.7285 22.8532Z" fill="#41A716"/>
<path d="M30.5328 3.4915C30.3005 2.7744 29.9685 2.02314 29.3378 1.61337C28.2424 0.896266 26.4498 1.34019 25.288 2.43292C26.2839 0.110866 29.6034 -0.230613 31.4623 0.964561C33.3212 2.15974 34.2175 4.55008 34.1179 6.80384C34.0183 9.0576 32.9893 11.1748 31.7278 13.0187C30.4664 14.8627 28.9395 16.5018 27.5785 18.2434C26.2175 20.0191 25.1884 22.307 24.6573 24.4924C24.1262 22.3753 24.7901 19.8142 26.0183 18.0043C27.2465 16.1945 28.7403 14.6237 29.7693 12.7114C31.2631 9.94544 31.5287 6.49651 30.5328 3.4915Z" fill="#41A716"/>
<path d="M123.033 12.5L114.653 32.6259C113.874 34.5987 112.928 35.9819 111.815 36.7756C110.702 37.5919 109.355 38.0001 107.775 38.0001C106.884 38.0001 106.005 37.8527 105.137 37.5579C104.269 37.2631 103.556 36.855 103 36.3334L104.669 33.2042C105.07 33.5897 105.538 33.8958 106.072 34.1225C106.628 34.3493 107.185 34.4627 107.741 34.4627C108.476 34.4627 109.077 34.2699 109.544 33.8844C110.034 33.499 110.479 32.8527 110.88 31.9457L111.18 31.2314L103.434 12.5H107.775L113.351 26.4355L119.027 12.5H123.033Z" fill="#1B2733"/>
</svg>
