<svg width="398" height="90" viewBox="0 0 398 90" fill="none" xmlns="http://www.w3.org/2000/svg">
<path d="M194.076 29.6199V70.841H185.238V65.4688C183.748 67.4317 181.861 68.878 179.577 69.9112C177.293 70.841 174.81 71.3575 172.129 71.3575C168.256 71.3575 164.78 70.531 161.801 68.7747C158.722 67.0184 156.438 64.539 154.65 61.3363C152.962 58.1337 152.068 54.4145 152.068 50.2821C152.068 46.0463 152.962 42.3271 154.65 39.2278C156.339 36.0252 158.722 33.649 161.801 31.8927C164.879 30.1364 168.256 29.3099 172.129 29.3099C174.711 29.3099 177.094 29.7232 179.18 30.653C181.364 31.5828 183.152 32.9258 184.741 34.7854V29.7232H194.076V29.6199ZM181.662 59.5801C183.847 57.2039 185.039 54.1046 185.039 50.2821C185.039 46.4596 183.947 43.3602 181.662 40.9841C179.478 38.6079 176.598 37.4715 173.221 37.4715C169.845 37.4715 166.965 38.6079 164.78 40.9841C162.595 43.3602 161.503 46.4596 161.503 50.2821C161.503 54.1046 162.595 57.2039 164.78 59.5801C166.965 61.9562 169.745 63.0926 173.221 63.0926C176.598 63.0926 179.378 61.9562 181.662 59.5801Z" fill="#F5F5F5"/>
<path d="M233.1 31.7894C236.178 33.5456 238.562 36.0251 240.25 39.2277C241.938 42.4304 242.832 46.0463 242.832 50.282C242.832 54.4145 241.938 58.1337 240.25 61.3363C238.562 64.5389 236.178 67.0184 233.1 68.7747C230.021 70.531 226.645 71.3575 222.772 71.3575C217.409 71.3575 213.238 69.4979 210.06 65.7787V85.7177H200.824V29.6198H209.663V34.992C211.152 33.0291 213.039 31.5827 215.323 30.5496C217.607 29.6198 220.09 29.1033 222.772 29.1033C226.645 29.2066 230.021 30.0331 233.1 31.7894ZM230.12 59.58C232.305 57.2039 233.398 54.1045 233.398 50.282C233.398 46.4595 232.305 43.3602 230.12 40.984C227.936 38.6079 225.155 37.4715 221.679 37.4715C219.494 37.4715 217.409 37.988 215.721 39.0211C213.933 40.0542 212.543 41.6039 211.45 43.5668C210.457 45.5297 209.861 47.8026 209.861 50.3853C209.861 52.9681 210.358 55.2409 211.45 57.2039C212.443 59.1668 213.933 60.6131 215.721 61.7495C217.508 62.7827 219.494 63.2992 221.679 63.2992C225.155 63.0926 227.936 61.9562 230.12 59.58Z" fill="#F5F5F5"/>
<path d="M298.45 70.0137C295.372 69.1872 292.988 68.0508 291.102 66.7077L294.677 59.3727C296.464 60.6124 298.55 61.6455 301.132 62.3687C303.614 63.0919 306.097 63.5051 308.481 63.5051C314.042 63.5051 316.823 61.9554 316.823 58.9594C316.823 57.5131 316.127 56.48 314.737 55.9634C313.347 55.4468 311.063 54.827 307.984 54.3104C304.707 53.7939 302.026 53.174 300.039 52.5541C297.954 51.9343 296.166 50.6945 294.677 49.0416C293.187 47.3886 292.393 45.0124 292.393 42.0164C292.393 38.0906 293.982 34.9913 297.06 32.6151C300.238 30.239 304.409 29.1025 309.772 29.1025C312.453 29.1025 315.234 29.4125 317.915 30.0323C320.596 30.6522 322.88 31.582 324.569 32.6151L320.994 39.9502C317.617 37.884 313.843 36.8509 309.672 36.8509C306.991 36.8509 304.905 37.2641 303.515 38.0906C302.125 38.9171 301.43 40.0535 301.43 41.3965C301.43 42.9462 302.224 44.0826 303.714 44.7025C305.203 45.3224 307.587 45.9422 310.765 46.5621C313.943 47.0787 316.525 47.6985 318.511 48.3184C320.497 48.9382 322.285 50.0747 323.774 51.7276C325.264 53.2773 325.959 55.5502 325.959 58.5462C325.959 62.3687 324.37 65.468 321.093 67.8442C317.915 70.117 313.545 71.3567 307.984 71.3567C304.608 71.3567 301.529 70.9435 298.45 70.0137Z" fill="#F5F5F5"/>
<path d="M351.777 68.5677C350.685 69.4975 349.394 70.2207 347.805 70.6339C346.216 71.0471 344.627 71.3571 342.839 71.3571C338.47 71.3571 335.093 70.2207 332.71 67.8445C330.326 65.4684 329.135 62.0591 329.135 57.5134V37.6777V29.9294V20.5281H338.37V29.9294H348.996V37.6777H338.37V57.3068C338.37 59.2697 338.867 60.8194 339.761 61.8525C340.655 62.8856 342.045 63.4021 343.832 63.4021C345.918 63.4021 347.606 62.8856 348.996 61.7492L351.777 68.5677Z" fill="#F5F5F5"/>
<path d="M394.383 29.6199V70.841H385.544V65.4688C384.055 67.4317 382.168 68.878 379.884 69.9112C377.6 70.841 375.117 71.3575 372.435 71.3575C368.562 71.3575 365.087 70.531 362.107 68.7747C359.029 67.0184 356.745 64.539 354.957 61.3363C353.269 58.1337 352.375 54.4145 352.375 50.2821C352.375 46.0463 353.269 42.3271 354.957 39.2278C356.645 36.0252 359.029 33.649 362.107 31.8927C365.186 30.1364 368.562 29.3099 372.435 29.3099C375.017 29.3099 377.401 29.7232 379.486 30.653C381.671 31.5828 383.459 32.9258 385.048 34.7854V29.7232H394.383V29.6199ZM381.969 59.5801C384.154 57.2039 385.346 54.1046 385.346 50.2821C385.346 46.4596 384.253 43.3602 381.969 40.9841C379.784 38.6079 376.904 37.4715 373.528 37.4715C370.151 37.4715 367.271 38.6079 365.087 40.9841C362.902 43.3602 361.809 46.4596 361.809 50.2821C361.809 54.1046 362.902 57.2039 365.087 59.5801C367.271 61.9562 370.052 63.0926 373.528 63.0926C376.904 63.0926 379.784 61.9562 381.969 59.5801Z" fill="#F5F5F5"/>
<path d="M125.745 48.1118H116.112V70.8402H106.578V16.8086H116.112V39.4337H126.043L140.939 16.8086H151.168L133.491 42.9463L151.863 70.7369H140.939L125.745 48.1118Z" fill="#F5F5F5"/>
<path d="M371.044 22.6978C370.746 22.3879 370.646 22.0779 370.646 21.5614C370.646 21.1481 370.746 20.7349 371.044 20.425C371.342 20.115 371.64 20.0117 372.136 20.0117C372.533 20.0117 372.931 20.115 373.229 20.425C373.526 20.7349 373.626 21.0448 373.626 21.5614C373.626 21.9746 373.526 22.3879 373.229 22.6978C372.931 23.0077 372.633 23.111 372.136 23.111C371.739 23.111 371.342 23.0077 371.044 22.6978Z" fill="#59C133"/>
<path d="M383.656 13.7095C384.351 14.1227 384.947 14.7426 385.444 15.4658C385.841 16.189 386.039 17.1188 386.039 18.0486C386.039 19.0817 385.841 19.9082 385.444 20.6313C385.046 21.3545 384.451 21.9744 383.656 22.3876C382.961 22.8009 382.067 23.0075 381.173 23.0075C380.478 23.0075 379.882 22.9042 379.386 22.6976C378.79 22.4909 378.393 22.0777 377.995 21.6644V22.9042H375.811V9.47375H378.095V14.4327C378.492 14.0194 378.889 13.7095 379.485 13.5029C379.982 13.2963 380.577 13.193 381.173 13.193C382.067 13.0896 382.961 13.2963 383.656 13.7095ZM382.961 20.3214C383.457 19.8049 383.755 18.9784 383.755 18.1519C383.755 17.2221 383.457 16.4989 382.961 15.9823C382.464 15.4658 381.769 15.1559 380.875 15.1559C380.379 15.1559 379.882 15.2592 379.386 15.5691C378.988 15.7757 378.591 16.189 378.393 16.6022C378.095 17.0155 377.995 17.6353 377.995 18.2552C377.995 18.8751 378.095 19.3916 378.393 19.9082C378.691 20.3214 378.988 20.7347 379.386 20.9413C379.783 21.1479 380.279 21.3545 380.875 21.3545C381.769 21.1479 382.464 20.9413 382.961 20.3214Z" fill="#59C133"/>
<path d="M397.059 13.1935L392.491 23.7312C392.093 24.7643 391.597 25.5908 390.902 26.004C390.306 26.4173 389.611 26.6239 388.717 26.6239C388.22 26.6239 387.724 26.5206 387.326 26.4173C386.83 26.2107 386.433 26.004 386.135 25.7974L387.029 24.1444C387.227 24.3511 387.525 24.5577 387.823 24.661C388.121 24.7643 388.419 24.8676 388.717 24.8676C389.114 24.8676 389.412 24.7643 389.71 24.5577C390.008 24.3511 390.206 24.0411 390.405 23.5246L390.604 23.1113L386.333 13.2968H388.717L391.795 20.5286L394.874 13.2968H397.059V13.1935Z" fill="#59C133"/>
<path d="M15.0839 20.7237C13.5115 20.9663 12.175 22.0177 11.3102 23.3926C10.4453 24.7675 10.1309 26.385 10.1309 28.0025C10.1309 31.8037 12.4108 35.524 15.6342 37.3033C16.7349 33.5021 17.7569 29.701 18.8576 25.8998C19.0935 25.0101 19.4079 23.9587 19.1721 23.0691C18.8576 21.2898 16.8135 20.4002 15.0839 20.7237Z" fill="#184F00"/>
<path d="M27.9767 60.1909L63.5912 16.1134L59.1099 12.3122C48.6535 3.33498 32.0649 5.76127 22.2374 17.9736C12.41 30.1859 12.8817 47.2507 23.3381 56.228C23.7312 56.5515 24.1243 56.875 24.5174 57.1176L27.9767 60.1909Z" fill="#F2A500"/>
<path d="M31.752 10.0473C32.6954 9.56206 33.6388 9.15768 34.5823 8.7533L55.2592 26.4652L53.5295 28.6488L31.752 10.0473Z" fill="#E38B00"/>
<path d="M26.875 13.2828C27.6612 12.6357 28.3688 12.0696 29.155 11.5844L51.6401 30.8329L49.9105 33.0165L26.875 13.2828Z" fill="#E38B00"/>
<path d="M62.2591 17.8121L60.5295 19.9958L45.2773 6.97473C47.0856 7.05561 48.8152 7.29824 50.5448 7.78349L62.2591 17.8121Z" fill="#E38B00"/>
<path d="M22.8652 17.1653C23.4942 16.4375 24.1231 15.7904 24.7521 15.1434L48.1807 35.2007L46.4511 37.3844L22.8652 17.1653Z" fill="#FDC100"/>
<path d="M37.6445 7.78532C38.8238 7.46181 40.0031 7.30006 41.1824 7.13831L58.7145 22.1813L56.9849 24.3649L37.6445 7.78532Z" fill="#E38B00"/>
<path d="M17.0508 26.951C17.3653 26.0614 17.7584 25.1717 18.2301 24.2821L41.1869 43.935L39.3787 46.0378L17.0508 26.951Z" fill="#FDC100"/>
<path d="M18.235 50.0819C17.2916 48.3026 16.5054 46.4425 15.9551 44.5015L30.5783 56.9564L28.8487 59.1401L18.235 50.0819Z" fill="#FDC100"/>
<path d="M15.242 40.1335C15.1634 38.9203 15.0848 37.6263 15.1634 36.3323L34.1107 52.5884L32.3811 54.772L15.242 40.1335Z" fill="#FDC100"/>
<path d="M19.5664 21.7749C20.0381 20.9661 20.5885 20.1573 21.1388 19.4294L44.7246 39.5676L42.995 41.7513L19.5664 21.7749Z" fill="#FDC100"/>
<path d="M15.4824 32.9365C15.6397 31.8851 15.8755 30.8337 16.1114 29.8632L37.5745 48.222L35.8449 50.4057L15.4824 32.9365Z" fill="#FDC100"/>
<path d="M64.7835 54.3661C74.6589 42.1902 74.1836 25.0847 63.7219 16.1599C53.2602 7.235 36.7738 9.87042 26.8985 22.0462C17.0231 34.2221 17.4984 51.3276 27.9601 60.2524C38.4218 69.1773 54.9082 66.5419 64.7835 54.3661Z" fill="#FED900"/>
<path d="M60.3224 48.9931C68.0417 39.4467 67.6695 26.0345 59.491 19.0363C51.3126 12.038 38.4249 14.1037 30.7056 23.6502C22.9862 33.1966 23.3585 46.6088 31.5369 53.607C39.7154 60.6053 52.6031 58.5396 60.3224 48.9931Z" fill="#FEEF94"/>
<path d="M28.1367 60.3537C38.5931 69.1692 54.9459 66.5003 64.6948 54.3689C66.1885 52.5087 67.4464 50.5677 68.4685 48.5458L28.1367 60.3537Z" fill="#FEEF94"/>
<path d="M70.9872 41.6704C71.3803 40.2146 71.6161 38.6779 71.6948 37.2222L22.4004 52.993C23.0293 54.2062 23.7369 55.4193 24.5231 56.4707L70.9872 41.6704Z" fill="#FEEF94"/>
<path d="M60.5959 50.8787C68.3152 41.3323 67.9429 27.9202 59.7645 20.9219C51.586 13.9236 38.6983 15.9893 30.979 25.5358C23.2597 35.0822 23.6319 48.4944 31.8104 55.4926C39.9889 62.4909 52.8766 60.4252 60.5959 50.8787Z" fill="#FDC100"/>
<path d="M63.3555 25.1718C63.4343 25.3335 63.5132 25.4144 63.592 25.5761C63.5132 25.4144 63.4343 25.3335 63.3555 25.1718Z" fill="#F2A500"/>
<path d="M63.75 25.8192C63.9866 26.2236 64.1443 26.5471 64.302 26.9515C64.1443 26.628 63.9866 26.2236 63.75 25.8192Z" fill="#F2A500"/>
<path d="M64.3008 27.032C64.3796 27.1937 64.4585 27.4364 64.5374 27.679C64.5374 27.4364 64.4585 27.1937 64.3008 27.032Z" fill="#F2A500"/>
<path d="M64.6934 27.7599C64.7722 28.0025 64.8511 28.1643 64.9299 28.4069C64.8511 28.1643 64.7722 28.0025 64.6934 27.7599Z" fill="#F2A500"/>
<path d="M31.5161 53.5594C28.2927 50.8096 26.3272 47.0893 25.541 43.0455C26.0127 47.8171 28.1355 52.2653 31.8306 55.4195C40.007 62.4557 52.9006 60.353 60.6053 50.8096C66.03 44.0968 67.4451 35.4431 64.9293 28.4069C65.2438 29.3774 65.5583 30.3479 65.7155 31.3184C66.3445 37.2224 64.5362 43.6925 60.2908 48.9494C52.5861 58.4928 39.6925 60.5956 31.5161 53.5594Z" fill="#F2A500"/>
<path d="M61.0762 22.1794C61.155 22.2603 61.2339 22.3412 61.3128 22.4221C61.2339 22.3412 61.155 22.2603 61.0762 22.1794Z" fill="#F2A500"/>
<path d="M61.7051 22.8265C61.7839 22.9074 61.8628 22.9883 61.8628 23.0692C61.7839 22.9883 61.7839 22.9074 61.7051 22.8265Z" fill="#F2A500"/>
<path d="M60.4473 21.5325C60.5261 21.6143 60.605 21.696 60.6838 21.696C60.5261 21.6143 60.5261 21.5325 60.4473 21.5325Z" fill="#F2A500"/>
<path d="M62.8848 24.4446C62.9636 24.6063 63.0425 24.6872 63.1213 24.849C63.0425 24.6872 62.9636 24.6063 62.8848 24.4446Z" fill="#F2A500"/>
<path d="M62.4141 23.7164C62.4929 23.7973 62.5718 23.8782 62.6506 24.0399C62.5718 23.9591 62.4929 23.7973 62.4141 23.7164Z" fill="#F2A500"/>
<path opacity="0.36" d="M57.5366 85.2631C74.8179 85.2631 88.8272 83.8871 88.8272 82.1898C88.8272 80.4924 74.8179 79.1165 57.5366 79.1165C40.2553 79.1165 26.2461 80.4924 26.2461 82.1898C26.2461 83.8871 40.2553 85.2631 57.5366 85.2631Z" fill="#B8B8F2"/>
<path d="M13.7433 37.7069C11.0702 36.4129 8.23992 36.332 6.19582 38.4348C4.46619 40.2141 3.75862 42.883 3.91586 45.471C4.15171 47.9782 5.17377 50.4045 6.66753 52.4264C8.1613 54.4483 9.89093 56.2276 11.6992 58.0068L19.5611 61.5654C20.0328 54.3674 13.2716 44.9049 13.7433 37.7069Z" fill="#184F00"/>
<path d="M82.0612 19.9965C80.3316 19.8347 78.3661 20.8052 78.0516 22.5845C77.8943 23.555 78.2088 24.5255 78.5233 25.4152C79.8598 29.1355 79.624 35.9291 80.9605 39.6494C84.1053 37.6275 87.5646 30.753 87.4073 26.9518C87.3287 25.3343 86.857 23.7168 85.9135 22.4227C84.9701 21.1287 83.555 20.1582 82.0612 19.9965Z" fill="#184F00"/>
<path opacity="0.42" d="M51.3219 47.8975H43.6172L50.3784 28.2446L51.3219 29.6195V47.8975Z" fill="#F15A24"/>
<path opacity="0.42" d="M49.6758 35.8477H38.276L37.2539 34.4728L49.6758 29.6202V35.8477Z" fill="#F15A24"/>
<path d="M50.3004 28.2451H42.5957V46.5231H50.3004V28.2451Z" fill="#FFE31B"/>
<path d="M48.6518 28.2449H37.252V34.4723H48.6518V28.2449Z" fill="#FFE31B"/>
<path d="M64.2983 2.36473C61.3893 2.68823 59.7383 5.11452 59.1094 8.02606C64.9272 12.0699 69.723 16.1137 75.5408 20.0766L75.9339 18.7826C75.6981 16.2754 75.4622 13.6874 74.7546 11.2611C74.0471 8.83482 72.8678 6.48941 71.0595 4.79102C69.2513 3.09262 66.7354 2.04123 64.2983 2.36473Z" fill="#184F00"/>
<path d="M57.3775 51.2955C57.7706 49.9206 58.7926 48.7074 59.4216 47.4134C60.7581 44.6636 61.3871 41.5903 61.7016 38.517C62.4878 32.2087 62.3305 25.6577 60.6009 19.5111C58.8713 13.3646 55.412 7.62235 50.459 3.82117C55.412 4.0638 60.0506 6.49008 64.3746 9.07812C67.6766 11.1 71.0573 13.3646 73.2586 16.5996C75.3813 19.7538 76.2462 23.4741 77.0324 27.1944C77.9758 31.4808 78.8406 35.8481 78.4475 40.2154C77.9758 45.5533 75.6958 50.5676 72.2366 54.5305C68.7773 58.4935 64.2174 61.405 59.343 63.1843C59.343 59.1405 56.3554 55.1775 57.3775 51.2955Z" fill="#247700"/>
<path opacity="0.56" d="M48.9641 29.6202H46.291V44.0971H48.9641V29.6202Z" fill="#FFF456"/>
<path d="M67.4403 43.774C73.494 30.5912 63.7452 16.5187 56.5908 5.11519C54.6253 4.3873 52.5812 3.90204 50.5371 3.82117C55.5688 7.62235 58.9494 13.3646 60.679 19.5111C62.4086 25.6577 62.5659 32.2087 61.7797 38.517C61.3866 41.5903 60.8363 44.6636 59.4997 47.4134C58.8708 48.7074 57.8487 49.9206 57.4556 51.2955C56.4336 55.2584 59.3425 59.1405 59.3425 63.2651C60.7576 62.7799 62.1728 62.1329 63.5879 61.405C59.4997 55.9863 64.9245 49.3544 67.4403 43.774Z" fill="#184F00"/>
<path d="M62.6433 16.0328C63.4295 22.3412 64.9232 28.2451 64.8446 34.5535C64.766 40.8618 62.4074 47.4937 57.3758 51.214C61.3854 42.6411 62.3288 32.6125 59.9702 23.3926C57.7689 14.5771 53.8379 9.96712 46.9194 4.71017C46.2118 4.22491 45.976 3.2544 46.3691 2.44564C48.9635 -2.73044 61.1495 4.22491 62.6433 16.0328Z" fill="#41A716"/>
<path d="M41.5768 69.4114C39.2969 68.1173 38.5893 65.2058 38.039 62.6178C37.2528 58.5739 36.5452 54.0449 38.5893 50.4863C39.5327 48.8688 41.0265 47.6557 42.5989 46.6852C48.7312 42.884 56.5931 42.884 62.7255 39.0828C68.3074 35.6051 71.4522 28.8924 73.0246 22.3414C78.3707 27.9219 80.8865 36.8183 79.4714 44.5015C78.0562 52.1847 73.3391 59.0592 67.0495 63.5074C60.76 67.9556 53.1339 70.0584 45.5078 70.1392C44.1713 70.1392 42.7561 70.0584 41.5768 69.4114Z" fill="#247700"/>
<path d="M73.3417 22.3414C71.7693 28.8924 68.3887 35.6051 62.8067 39.0828C56.6744 42.884 48.8124 42.884 42.6801 46.6852C41.1077 47.6557 39.6139 48.8688 38.6705 50.4863C36.5478 54.0449 37.334 58.4931 38.1202 62.6178C38.5919 65.2058 39.3781 68.1174 41.6581 69.4114C42.0512 69.654 42.4442 69.7349 42.8373 69.8966C40.1643 63.4265 39.7712 53.1553 44.567 51.6995C69.2535 44.178 72.241 35.2816 75.2285 34.6346C78.2161 33.9876 79.0023 35.5242 79.6312 36.7374C78.9237 31.3187 76.9582 26.0617 73.3417 22.3414Z" fill="#46B314"/>
<path d="M79.9374 47.4126C78.365 52.2652 76.9498 57.603 72.3113 62.9409C68.6162 67.1464 61.8549 68.3596 56.3516 69.3301C57.6881 66.4185 58.4743 62.86 58.1598 59.5441C57.924 57.3604 57.7667 55.2576 58.0812 53.1549C58.5529 49.8389 60.3612 46.8465 62.248 44.0967C65.0783 40.1338 68.3017 36.5752 71.0534 32.6123C73.8051 28.6494 76.7926 17.8929 80.016 14.0917C77.3429 22.4219 84.1042 34.5533 79.9374 47.4126Z" fill="#247700"/>
<path d="M77.9775 35.1195C77.1913 34.3916 75.9334 34.4725 74.9899 34.8769C73.9679 35.443 73.2603 36.2518 72.4741 37.0605C67.5997 42.5601 62.4895 48.3832 60.7598 55.5812C59.7378 59.7868 59.895 64.2349 59.8164 68.6023C62.7253 68.0361 65.5556 67.3891 67.9928 66.176C77.5058 57.4413 79.1568 44.9055 79.3926 39.6486C79.6285 36.737 79.0781 36.1709 77.9775 35.1195Z" fill="#184F00"/>
<path d="M78.1296 60.7573C77.1862 60.9999 75.8496 61.2426 74.2773 61.1617C72.7835 61.1617 71.0539 60.8382 69.5601 60.3529C68.0663 59.8677 66.7298 59.2207 65.7864 58.7354C65.3146 58.4928 64.9215 58.2502 64.6071 58.1693C64.2926 58.0075 64.0567 58.0075 63.9781 58.0884C63.8995 58.1693 63.9781 58.4119 64.1353 58.6545C64.2926 58.978 64.6071 59.3015 65.0788 59.7059C65.9436 60.5147 67.3587 61.4043 68.9311 62.0513C70.5821 62.6983 72.469 63.0218 74.1986 63.0218C75.9283 63.0218 77.422 62.6983 78.5227 62.4557C79.2303 62.2131 78.9944 60.5956 78.1296 60.7573Z" fill="#76D84C"/>
<path d="M42.1291 61.0806C41.1071 60.8379 40.0064 60.6762 39.063 60.5953C34.0313 60.2718 28.921 60.9997 23.968 60.1909C21.6094 59.7865 19.3295 59.0587 17.2068 58.0881C15.3985 55.1766 14.062 52.1842 13.2758 49.3535C12.0965 45.148 12.0179 41.7512 11.0744 37.0604C11.0744 36.9795 11.0744 36.8986 10.9958 36.8986C10.4455 34.3106 9.65929 31.3181 8.24414 27.517C9.58067 30.0241 13.433 36.8986 17.364 40.2145C20.5874 42.9643 30.0217 46.6037 33.0879 49.2726C37.4119 52.9929 39.5347 57.4411 42.1291 61.0806Z" fill="#247700"/>
<path d="M63.0383 67.9554C57.8494 71.1096 44.7199 76.1239 32.7698 72.3228C29.1533 71.1096 25.2223 68.1981 21.9203 64.4778C20.1907 62.5367 18.5397 60.3531 17.2031 58.1694C19.3258 59.1399 21.6058 59.8678 23.9644 60.2722C28.9174 61.081 34.0277 60.434 39.0593 60.6766C40.0814 60.7575 41.1034 60.9192 42.1255 61.1619C43.2262 62.6176 44.4054 63.9925 45.8206 65.1248C49.2799 67.6319 54.2329 69.0068 63.0383 67.9554Z" fill="#59C133"/>
<path d="M54.5474 71.5951C49.9875 69.735 44.4841 70.3011 40.3959 67.5513C37.9587 65.9338 36.3077 63.3458 34.4208 61.0004C31.8264 57.6844 28.6816 54.7729 25.2224 52.4275C23.8072 51.457 22.2348 50.4865 20.5052 50.3247C19.0114 50.163 17.2032 50.81 16.8101 52.3466C16.5742 53.2363 16.8887 54.1259 17.1246 55.0155C17.8321 57.1992 18.6183 59.3828 19.4832 61.5665C23.3355 66.6617 28.2099 70.8673 32.7698 72.323C40.3173 74.7493 48.3365 73.617 54.5474 71.5951Z" fill="#184F00"/>
<path d="M22.9373 70.7054C23.8807 70.5436 25.2172 70.2201 26.6324 69.5731C28.0475 69.007 29.4627 68.0365 30.7206 67.066C31.8999 66.0146 32.9219 64.9632 33.5509 64.0735C33.8654 63.6692 34.1799 63.2648 34.4157 63.103C34.6516 62.8604 34.8088 62.7795 34.9661 62.8604C35.1233 62.9413 35.1233 63.103 35.0447 63.5074C34.9661 63.8309 34.8088 64.3162 34.573 64.8823C34.0226 65.9337 33.0792 67.3086 31.8213 68.5217C30.5634 69.7349 28.9124 70.7863 27.34 71.4333C25.7676 72.0803 24.1952 72.4038 23.1731 72.5655C22.4656 72.4847 22.1511 70.7863 22.9373 70.7054Z" fill="#76D84C"/>
<path d="M9.33848 33.1789C11.8543 38.5167 15.8639 43.3693 21.2886 45.2295C25.2196 46.6044 29.9368 46.4426 33.0815 49.2733C31.1947 46.3617 28.0499 44.6633 24.9051 43.2076C21.7603 41.8327 18.537 40.4578 16.1784 37.9506C14.1343 35.6861 13.0336 32.7745 12.4046 29.7821C11.9329 27.7602 11.7757 25.4957 12.6405 23.5546C13.5053 21.6136 16.7287 20.8857 18.537 21.7754C17.5149 19.3491 13.5053 17.9742 11.2253 19.1873C8.94539 20.3196 7.60886 22.9885 7.53024 25.6574C7.373 28.2455 8.23781 30.8335 9.33848 33.1789Z" fill="#41A716"/>
<path d="M37.0996 70.2201C59.2703 71.5141 56.2827 59.0592 65.8743 49.6775C68.7832 46.766 77.9817 42.5604 81.0479 39.568C84.743 36.0095 88.2022 28.8924 89.3815 26.3043C85.9223 37.3035 87.1016 41.8325 85.765 48.4644C83.6423 57.846 75.3873 69.5731 67.5253 72.6464C55.8897 77.2563 42.4457 73.0507 37.0996 70.2201Z" fill="#184F00"/>
<path d="M45.8184 73.3746C50.221 71.1909 55.7244 71.4335 59.734 68.4411C62.0926 66.6618 63.5863 63.9929 65.2374 61.4858C67.6746 58.0081 70.5835 54.8539 73.8855 52.2659C75.222 51.2145 76.7944 50.1631 78.4454 49.8396C79.9392 49.597 81.7474 50.1631 82.2192 51.6189C82.5336 52.5085 82.2978 53.3982 82.0619 54.2878C81.433 56.5523 80.8826 58.736 80.0964 60.9196C76.5586 66.2575 71.9986 70.7865 67.5173 72.4849C60.2057 75.5582 52.1079 74.9112 45.8184 73.3746Z" fill="#247700"/>
<path d="M88.514 32.0472C86.3913 37.5467 82.6175 42.6419 77.35 44.9065C73.4977 46.524 68.7805 46.6857 65.793 49.6782C67.444 46.6049 70.5888 44.7447 73.5763 43.1272C76.5638 41.5097 79.7872 39.973 81.9886 37.3041C83.8754 34.9587 84.8189 31.8854 85.2906 28.893C85.6051 26.7902 85.6837 24.5257 84.6616 22.7464C83.6396 20.8862 80.4162 20.3201 78.6866 21.3715C79.5514 18.9452 83.4824 17.2468 85.8409 18.2982C88.1995 19.2687 89.6147 21.8568 89.9292 24.5257C90.2436 27.1946 89.4574 29.6209 88.514 32.0472Z" fill="#41A716"/>
<path d="M31.2002 78.7924C35.8388 80.4908 40.8704 82.6744 47.7889 82.1083C52.5061 81.7039 56.8302 78.2263 60.6039 74.8295C61.3901 74.1016 61.1542 72.7267 60.1322 72.3223C57.8522 71.5135 55.6509 70.2195 53.9213 68.5211C52.4275 67.0653 50.8551 65.5287 49.0469 64.5582C46.1379 62.9407 42.7573 62.5363 39.5339 62.3745C34.8167 62.2128 30.021 62.698 25.3038 62.4554C20.5866 62.2128 10.5233 58.0881 5.57031 58.3307C13.5895 61.404 18.7784 74.2633 31.2002 78.7924Z" fill="#184F00"/>
<path d="M26.6394 74.8298C26.5608 74.021 27.0325 72.9696 27.8187 72.5652C28.5262 72.1609 29.391 72.08 30.1772 71.9991C35.5234 71.5138 41.1053 71.1095 46.0584 73.374C48.81 74.5871 51.1686 76.609 53.6058 78.4692C53.7631 78.6309 53.7631 78.8736 53.6058 78.9544C53.6058 78.9544 53.6058 78.9544 53.5272 79.0353C50.461 81.7851 46.3728 83.2409 42.2846 82.8365C35.9165 82.1895 30.8062 79.1162 28.4476 77.4178C26.9538 76.2855 26.718 75.7194 26.6394 74.8298Z" fill="#247700"/>
<path d="M52.8176 67.4695C50.6948 66.499 48.3363 65.6093 45.8991 65.0432C43.0688 64.3153 40.0812 63.9918 37.2509 63.9918C32.1407 64.0727 27.0304 64.6388 21.9201 64.3962C21.8415 64.3962 21.7629 64.3962 21.6057 64.3962C16.4168 64.1536 11.1493 63.0213 6.8252 59.948C2.57975 56.8747 -0.486409 51.6986 0.0639272 46.3608C0.535644 41.1847 5.41005 35.766 10.992 36.8174C10.992 36.8983 10.992 36.9792 11.0706 36.9792C7.61139 37.7879 4.70247 40.1333 4.388 43.2066C4.23076 44.9859 5.09557 46.6843 6.039 48.221C8.79068 52.5074 12.7217 55.9042 17.203 58.007C19.3257 58.9775 21.6057 59.7054 23.9642 60.1097C28.9173 60.9185 34.0275 60.2715 39.0592 60.5141C40.0812 60.595 41.1033 60.7568 42.1253 60.9994C46.2922 61.9699 50.3804 64.1536 52.8176 67.4695Z" fill="#41A716"/>
<path d="M37.252 54.1258C37.8809 48.9497 42.1264 45.0676 46.6863 42.884C51.2462 40.7003 56.2778 39.6489 60.7591 37.3035C65.3191 35.039 73.0238 27.5175 73.181 22.3414C73.6527 26.2235 74.9893 31.6422 71.0583 35.4434C67.1273 39.2445 60.2088 42.7222 53.9193 44.4206C47.5511 46.0381 40.6326 48.3835 37.252 54.1258Z" fill="#41A716"/>
<path d="M72.3139 8.26922C71.7636 6.57082 70.9774 4.79155 69.4836 3.82103C66.8892 2.12263 62.6437 3.17402 59.892 5.76206C62.2506 0.262481 70.1126 -0.54628 74.5153 2.28439C78.9179 5.11505 81.0407 10.7764 80.8048 16.1142C80.5689 21.452 78.1317 26.4664 75.1442 30.8337C72.1567 35.201 68.5402 39.083 65.3168 43.2077C62.0934 47.4133 59.6562 52.832 58.3983 58.0081C57.1404 52.9937 58.7128 46.928 61.6217 42.6416C64.5306 38.3552 68.0685 34.6348 70.5057 30.1058C74.0435 23.5548 74.6725 15.3863 72.3139 8.26922Z" fill="#41A716"/>
<path d="M291.395 29.6051L271.546 77.2716C269.701 81.944 267.46 85.22 264.824 87.0997C262.188 89.0331 258.999 89.9998 255.256 89.9998C253.147 89.9998 251.064 89.6507 249.008 88.9526C246.952 88.2544 245.265 87.2877 243.947 86.0525L247.901 78.6411C248.85 79.5541 249.957 80.2791 251.223 80.8162C252.541 81.3532 253.858 81.6218 255.176 81.6218C256.916 81.6218 258.34 81.1653 259.447 80.2523C260.607 79.3393 261.661 77.8087 262.61 75.6605L263.322 73.9687L244.975 29.6051H255.256L268.462 62.61L281.905 29.6051H291.395Z" fill="#F5F5F5"/>
</svg>
